<?xml version="1.0" standalone="no"?>
<!DOCTYPE svg PUBLIC "-//W3C//DTD SVG 20010904//EN"
 "http://www.w3.org/TR/2001/REC-SVG-20010904/DTD/svg10.dtd">
<svg version="1.0" xmlns="http://www.w3.org/2000/svg"
 viewBox="0 0 256 256" preserveAspectRatio="xMidYMid meet">
<g transform="translate(0,256) scale(0.1,-0.1)" fill="#8f9bb0" stroke="none">
<path d="M424 2295 l-25 -25 3 -537 3 -538 25 -50 c31 -64 91 -124 155 -155
46 -22 64 -25 213 -28 l162 -4 0 -241 c0 -134 5 -258 10 -279 16 -57 70 -130
123 -165 166 -111 387 -53 474 125 l28 57 3 252 3 251 162 4 c148 3 166 6 212
28 64 31 124 91 155 155 l25 50 3 538 3 537 -25 25 -25 25 -831 0 -831 0 -25
-25z m376 -259 c0 -110 2 -126 21 -150 16 -20 29 -26 59 -26 30 0 43 6 59 26
19 24 21 40 21 150 l0 124 120 0 120 0 0 -165 c0 -163 0 -166 25 -190 32 -33
78 -33 110 0 25 24 25 27 25 190 l0 165 120 0 120 0 0 -89 c0 -109 18 -141 80
-141 62 0 80 32 80 141 l0 89 120 0 120 0 0 -280 0 -280 -720 0 -720 0 0 280
0 280 120 0 120 0 0 -124z m1198 -705 c-3 -118 -12 -141 -72 -185 -25 -19 -45
-21 -244 -26 -119 -3 -223 -9 -229 -13 -10 -6 -13 -76 -13 -294 l0 -286 -25
-43 c-27 -46 -90 -84 -141 -84 -43 0 -90 33 -124 87 l-30 47 0 282 c0 215 -3
285 -12 291 -7 4 -111 10 -230 13 -199 5 -219 7 -244 26 -60 44 -69 67 -72
185 l-4 109 722 0 722 0 -4 -109z"/>
</g>
</svg>
